<svg width="154" height="40" viewBox="0 0 154 40" fill="none" xmlns="http://www.w3.org/2000/svg">
<g clip-path="url(#clip0_0_62)">
<path d="M57.7914 23.6963V24.9568C57.7938 25.5722 57.6715 26.1815 57.432 26.7479C57.2003 27.3051 56.8682 27.8146 56.4522 28.2508C56.033 28.6919 55.5327 29.0476 54.979 29.2987C54.41 29.5583 53.7914 29.6902 53.1662 29.685C52.5927 29.6864 52.0215 29.6115 51.4676 29.4624C50.9011 29.312 50.3747 29.038 49.9259 28.6602C49.4482 28.2546 49.0628 27.751 48.7958 27.1835C48.4759 26.4631 48.324 25.6794 48.3515 24.8914V13.6343C48.3404 12.998 48.4514 12.3655 48.6782 11.7712C48.8992 11.2123 49.2328 10.7052 49.658 10.2813C50.0875 9.85696 50.5972 9.52298 51.1574 9.29906C51.7712 9.0544 52.4272 8.93315 53.0878 8.94216C53.7083 8.91852 54.3268 9.02614 54.9031 9.258C55.4794 9.48987 56.0006 9.84078 56.4326 10.2879C56.8567 10.7403 57.1895 11.2706 57.4124 11.8498C57.6558 12.4758 57.7778 13.1425 57.7718 13.8144V14.9604H54.8548V13.978C54.8656 13.4406 54.694 12.9153 54.3682 12.4882C54.2166 12.2862 54.0187 12.1237 53.7914 12.0143C53.564 11.9049 53.3138 11.8518 53.0616 11.8596C52.3366 11.8596 51.8552 12.0779 51.6179 12.5144C51.3623 13.0455 51.24 13.6311 51.2619 14.2204V24.6524C51.2432 25.177 51.3771 25.6958 51.6472 26.1455C51.9054 26.545 52.3659 26.7447 53.0355 26.7447C53.2439 26.7418 53.4507 26.7087 53.6496 26.6464C53.8731 26.5774 54.0816 26.4663 54.2636 26.319C54.4503 26.142 54.5964 25.9263 54.6915 25.6871C54.8162 25.3683 54.8751 25.0274 54.8647 24.6851V23.6832L57.7914 23.6963Z" fill="white"/>
<path d="M60.1628 29.5148V9.10596H64.8598C68.2894 9.10596 70.0044 11.1033 70.0044 15.098C70.0328 16.147 69.8437 17.1906 69.449 18.1628C69.0408 19.0418 68.3509 19.7588 67.4892 20.1994L70.6348 29.5148H67.5382L64.8238 20.8018H63.0796V29.5148H60.1628ZM63.0796 11.8597V18.2217H64.7389C65.159 18.2392 65.5781 18.1656 65.9672 18.0056C66.2598 17.8738 66.5082 17.6601 66.6825 17.39C66.851 17.0857 66.9618 16.7526 67.009 16.4077C67.1224 15.5032 67.1224 14.588 67.009 13.6834C66.9697 13.3265 66.8586 12.9812 66.6825 12.6684C66.3198 12.1314 65.634 11.8662 64.6246 11.8662L63.0796 11.8597Z" fill="white"/>
<path d="M74.5447 29.5151V20.8872L70.5433 9.09961H73.63L75.9655 17.22H76.0211L78.3663 9.10616H81.4529L77.4517 20.8937V29.5216L74.5447 29.5151Z" fill="white"/>
<path d="M82.9228 29.5148V9.10591H87.2965C88.0152 9.09759 88.7304 9.20821 89.4132 9.43333C90.0489 9.66221 90.618 10.0459 91.0692 10.5499C91.5627 11.0796 91.9164 11.7245 92.0981 12.4261C92.3157 13.3804 92.4123 14.3584 92.3856 15.3369C92.3955 16.1137 92.3431 16.8901 92.2288 17.6584C92.1233 18.2887 91.8947 18.8917 91.5559 19.4331C91.1707 20.0883 90.6183 20.6285 89.9553 20.9983C89.1393 21.4017 88.2351 21.5932 87.326 21.5549H85.8364V29.5247L82.9228 29.5148ZM85.8364 11.8596V18.7947H87.2377C87.7092 18.8201 88.1797 18.7313 88.6096 18.536C88.9195 18.3812 89.1705 18.1295 89.3249 17.8189C89.4905 17.4901 89.5831 17.1293 89.5961 16.7613C89.6255 16.3389 89.6419 15.8707 89.6419 15.3565C89.6419 14.8425 89.6419 14.4235 89.6124 13.9945C89.6023 13.6035 89.5145 13.2183 89.3544 12.8615C89.2104 12.5461 88.9703 12.2847 88.6684 12.115C88.2604 11.9239 87.8117 11.8362 87.3619 11.8596H85.8364Z" fill="white"/>
<path d="M96.4719 29.5148V11.8597H93.101V9.10596H102.75V11.8597H99.3887V29.5148H96.4719Z" fill="white"/>
<path d="M104.056 29.5148V9.10596H106.973V26.5909H112.748V29.5148H104.056Z" fill="white"/>
<path d="M114.715 29.5148V9.10596H117.632V29.5148H114.715Z" fill="white"/>
<path d="M120.291 13.9224C120.275 13.1741 120.421 12.4313 120.718 11.745C120.982 11.1428 121.372 10.6045 121.862 10.1668C122.319 9.76604 122.848 9.45505 123.42 9.24995C124.555 8.83075 125.802 8.83075 126.938 9.24995C127.516 9.45947 128.054 9.76984 128.525 10.1668C128.999 10.6123 129.377 11.1491 129.639 11.745C129.935 12.4318 130.081 13.1743 130.067 13.9224V14.9539H127.15V13.9224C127.173 13.6351 127.132 13.3461 127.031 13.0762C126.93 12.8063 126.771 12.5619 126.565 12.3606C126.175 12.0365 125.685 11.8592 125.179 11.8592C124.672 11.8592 124.182 12.0365 123.792 12.3606C123.584 12.5605 123.423 12.8046 123.322 13.0748C123.22 13.3451 123.18 13.6347 123.204 13.9224V24.6983C123.18 24.986 123.22 25.2756 123.322 25.5459C123.423 25.8161 123.584 26.0601 123.792 26.2601C124.182 26.5841 124.672 26.7615 125.179 26.7615C125.685 26.7615 126.175 26.5841 126.565 26.2601C126.771 26.0587 126.93 25.8144 127.031 25.5444C127.132 25.2745 127.173 24.9856 127.15 24.6983V20.8575H124.834V18.2773H130.06V24.6983C130.08 25.4564 129.934 26.2096 129.632 26.9051C129.37 27.4835 128.991 28.0008 128.519 28.4244C128.054 28.8375 127.515 29.1585 126.931 29.3707C125.796 29.7899 124.549 29.7899 123.413 29.3707C122.836 29.1627 122.306 28.8409 121.855 28.4244C121.367 28.0087 120.977 27.4899 120.712 26.9051C120.409 26.2101 120.263 25.4565 120.284 24.6983L120.291 13.9224Z" fill="white"/>
<path d="M132.641 29.5148V9.10596H135.557V17.8484H139.151V9.10596H142.064V29.5148H139.151V20.4285H135.557V29.5148H132.641Z" fill="white"/>
<path d="M146.735 29.5148V11.8597H143.361V9.10596H153.027V11.8597H149.652V29.5148H146.735Z" fill="white"/>
<path d="M19.2652 38.624C29.9049 38.624 38.5303 29.9777 38.5303 19.312C38.5303 8.64627 29.9049 0 19.2652 0C8.62529 0 0 8.64627 0 19.312C0 29.9777 8.62529 38.624 19.2652 38.624Z" fill="#6844ED"/>
<path d="M19.0791 29.6981C24.8013 29.6981 29.44 25.0481 29.44 19.312C29.44 13.5759 24.8013 8.92578 19.0791 8.92578C13.3568 8.92578 8.71808 13.5759 8.71808 19.312C8.71808 25.0481 13.3568 29.6981 19.0791 29.6981Z" fill="#927BE9"/>
<path d="M26.314 22.4977V23.3654C25.0305 24.8264 23.6581 26.2064 22.2049 27.4977C21.0969 28.4828 19.8674 29.3213 18.5465 29.9928C17.479 30.5464 16.2989 30.8466 15.0973 30.8702C14.2374 30.8937 13.386 30.6952 12.6246 30.294C11.9397 29.9166 11.3935 29.329 11.0665 28.6174C10.6957 27.7954 10.5159 26.8998 10.5406 25.998C10.5486 25.145 10.6761 24.2974 10.9195 23.4801C11.1913 22.5493 11.5591 21.6494 12.017 20.7952C12.5397 19.8225 13.1302 18.8881 13.7841 17.9989C14.4788 17.0362 15.2976 16.0256 16.2405 14.9668C17.1365 13.9537 18.1024 13.0052 19.1312 12.128C19.9414 11.4334 20.8066 10.8059 21.7182 10.2518C22.3986 9.84171 23.1188 9.50162 23.8674 9.23675C24.3917 9.04379 24.9426 8.93334 25.5006 8.90931C25.903 8.89919 26.2988 9.01352 26.6341 9.23675C26.9601 9.47143 27.2101 9.79714 27.3528 10.1732C27.5301 10.6232 27.6168 11.104 27.6074 11.5877C27.6074 12.594 27.2656 13.7138 26.5818 14.9472C25.8612 16.2282 25.0024 17.4262 24.021 18.5194C23.133 19.5424 22.1546 20.4826 21.0976 21.3288C20.17 22.0557 19.5014 22.4192 19.092 22.4192C18.8044 22.4144 18.53 22.2968 18.3277 22.0917C18.2192 22.0012 18.1314 21.8881 18.0706 21.7604C18.0097 21.6326 17.977 21.4933 17.9749 21.3517C17.9749 20.8409 18.2428 20.2286 18.7785 19.5084C19.306 18.7964 19.8952 18.1324 20.539 17.5241C21.1728 16.9216 21.5516 16.6236 21.679 16.6236C21.741 16.6236 21.7705 16.6498 21.7705 16.7022C21.7506 16.8486 21.703 16.9897 21.63 17.1181C21.5669 17.231 21.5196 17.3522 21.4896 17.4782C21.4896 17.547 21.5189 17.583 21.5712 17.583C21.7214 17.583 22.1558 17.1802 22.8777 16.3682C23.6141 15.5357 24.2754 14.6394 24.854 13.6898C25.4549 12.7185 25.7554 11.9195 25.7554 11.293C25.7694 11.0822 25.7106 10.8729 25.5889 10.7004C25.5273 10.6295 25.45 10.5739 25.3633 10.5381C25.2765 10.5023 25.1826 10.4872 25.0892 10.4941C24.4641 10.4941 23.5201 10.9984 22.2572 12.0068C20.8418 13.1678 19.5393 14.4604 18.3669 15.8673C17.0894 17.3534 15.9748 18.9725 15.0417 20.6969C14.1706 22.3602 13.7352 23.825 13.7352 25.091C13.7168 25.7161 13.828 26.3384 14.0618 26.9181C14.2608 27.3849 14.5954 27.7808 15.0221 28.0544C15.4816 28.332 16.0113 28.4706 16.5476 28.4537C17.8345 28.4537 19.2956 27.9506 20.931 26.9444C22.8881 25.6721 24.6941 24.1802 26.314 22.4977Z" fill="white"/>
</g>
<defs>
<clipPath id="clip0_0_62">
<rect width="153.333" height="40" fill="white"/>
</clipPath>
</defs>
</svg>
